<svg xmlns="http://www.w3.org/2000/svg" xmlns:xlink="http://www.w3.org/1999/xlink" viewBox="0,0,256,256" width="35px" height="35px"><g fill="#2f88ff" fill-rule="nonzero" stroke="none" stroke-width="1" stroke-linecap="butt" stroke-linejoin="miter" stroke-miterlimit="10" stroke-dasharray="" stroke-dashoffset="0" font-family="none" text-anchor="none" style="mix-blend-mode: normal"><g transform="scale(5.12,5.12)"><path d="M25,2.00781c-12.6907,0 -23,10.3093 -23,23c0,12.10445 9.38131,22.03538 21.25977,22.92774c0.02342,0.0019 0.04685,0.00403 0.07031,0.00586c0.55233,0.0398 1.10755,0.06641 1.66992,0.06641c0.56237,0 1.1176,-0.02661 1.66992,-0.06641c0.02347,-0.00183 0.04689,-0.00396 0.07031,-0.00586c11.87846,-0.89235 21.25977,-10.82328 21.25977,-22.92773c0,-12.6907 -10.3093,-23 -23,-23zM25,4.00781c11.60982,0 21,9.39018 21,21c0,5.7317 -2.29519,10.91626 -6.00977,14.70313c-1.58916,-1.15722 -3.55304,-1.84755 -5.3125,-2.46484c-2.084,-0.73 -4.05556,-1.422 -4.60156,-2.625c-0.086,-1.027 -0.07831,-1.829 -0.07031,-2.75l0.00195,-0.39062c0.888,-0.845 2.00472,-2.62839 2.38672,-4.27539c0.66,-0.352 1.46699,-1.1958 1.70898,-3.2168c0.121,-1.003 -0.16445,-1.77978 -0.56445,-2.30078c0.54,-1.855 1.61442,-6.55103 -0.26758,-9.58203c-0.796,-1.281 -1.99717,-2.0892 -3.57617,-2.4082c-0.887,-1.098 -2.56083,-1.69727 -4.79883,-1.69727c-3.401,0.063 -5.89425,1.1047 -7.40625,3.0957c-1.783,2.35 -2.11991,5.90059 -1.00391,10.55859c-0.413,0.521 -0.71089,1.30903 -0.58789,2.33203c0.243,2.021 1.04703,2.8648 1.70703,3.2168c0.382,1.649 1.49772,3.43234 2.38672,4.27734l0.00195,0.38086c0.008,0.925 0.01569,1.72877 -0.07031,2.75977c-0.548,1.206 -2.52905,1.90553 -4.62305,2.64453c-1.7489,0.61756 -3.70115,1.30896 -5.28711,2.45117c-3.71745,-3.78729 -6.01367,-8.97477 -6.01367,-14.70898c0,-11.60982 9.39018,-21 21,-21z"></path></g></g></svg>